Coordinates
version=1
nRows=29
nColumns=38
inDegrees=no

Units are S.I. units (second, meters, Newtons, ...)
If the header above contains a line with 'inDegrees', this indicates whether rotational values are in degrees (yes) or radians (no).

endheader
time	pelvis_tilt	pelvis_list	pelvis_rotation	pelvis_tx	pelvis_ty	pelvis_tz	hip_flexion_r	hip_adduction_r	hip_rotation_r	knee_angle_r	ankle_angle_r	subtalar_angle_r	mtp_angle_r	hip_flexion_l	hip_adduction_l	hip_rotation_l	knee_angle_l	ankle_angle_l	subtalar_angle_l	mtp_angle_l	lumbar_extension	lumbar_bending	lumbar_rotation	arm_flex_r	arm_add_r	arm_rot_r	elbow_flex_r	pro_sup_r	wrist_flex_r	wrist_dev_r	arm_flex_l	arm_add_l	arm_rot_l	elbow_flex_l	pro_sup_l	wrist_flex_l	wrist_dev_l
4.05	0.0103792	0.0434207	0.075011	0.786183	0.945238	-0.379097	0.195256	-0.184257	-0.134296	-2.39336	0.220302	0.0146342	-0.0415119	0.403089	0.0256747	-0.12009	-0.953042	0.591575	0.0999999	-0.0429336	-0.346492	-0.0997331	-0.10848	-0.295718	-0.414138	0.141269	1.60045	1.37111	0.0370778	-0.0172792	-0.193386	-0.683238	-0.44818	2.23207	1.60079	-0.00132512	-0.0204243
4.05833	0.00594929	0.0406578	0.0776748	0.784581	0.946224	-0.380016	0.281312	-0.185902	-0.123994	-2.42168	0.2476	0.0146342	-0.0415119	0.347853	0.0200529	-0.120163	-0.93421	0.629615	0.0999999	-0.0429336	-0.34495	-0.0920668	-0.138237	-0.314844	-0.41495	0.128912	1.56137	1.35014	0.0370778	-0.0172792	-0.14544	-0.67208	-0.430229	2.22283	1.61448	-0.00132512	-0.0204243
4.06667	0.00054822	0.0338358	0.079985	0.783604	0.947921	-0.38094	0.367266	-0.181768	-0.11628	-2.4309	0.272188	0.0146342	-0.0415119	0.287493	0.0097217	-0.121873	-0.901346	0.65657	0.0999999	-0.0429336	-0.340122	-0.0795958	-0.166366	-0.337407	-0.418658	0.114951	1.53369	1.32543	0.0370778	-0.0172792	-0.103482	-0.658557	-0.412001	2.21467	1.62398	-0.00132512	-0.0204243
4.075	-0.00594321	0.0231043	0.0821517	0.783319	0.950239	-0.381896	0.45127	-0.172547	-0.112451	-2.4211	0.293299	0.0146342	-0.0415119	0.223827	-0.00505641	-0.12556	-0.857015	0.670084	0.0999999	-0.0429336	-0.331857	-0.0625305	-0.192884	-0.363715	-0.425409	0.0989475	1.51751	1.29883	0.0370778	-0.0172792	-0.0685221	-0.643199	-0.393704	2.20851	1.62921	-0.00132512	-0.0204243
4.08333	-0.0136416	0.00905909	0.0842556	0.783726	0.95309	-0.382877	0.531694	-0.159368	-0.113106	-2.39298	0.310587	0.0146342	-0.0415119	0.15874	-0.023567	-0.131848	-0.804094	0.668264	0.0999999	-0.0429336	-0.320219	-0.0416149	-0.217829	-0.393696	-0.435047	0.0806173	1.5119	1.27256	0.0370778	-0.0172792	-0.0410232	-0.626747	-0.375154	2.20495	1.63043	-0.00132512	-0.0204243
4.09167	-0.022576	-0.00732154	0.0862003	0.784765	0.956382	-0.383844	0.607132	-0.143594	-0.118083	-2.34771	0.324171	0.0146342	-0.0415119	0.0940093	-0.044728	-0.141576	-0.745643	0.649683	0.0999999	-0.0429336	-0.305547	-0.018058	-0.241186	-0.426928	-0.447128	0.0598752	1.51511	1.24882	0.0370778	-0.0172792	-0.020881	-0.610112	-0.355834	2.20425	1.62824	-0.00132512	-0.0204243
4.1	-0.032642	-0.024798	0.087719	0.786335	0.960018	-0.384749	0.676387	-0.126591	-0.126555	-2.28666	0.334582	0.0146342	-0.0415119	0.0312128	-0.0672118	-0.155576	-0.684852	0.613484	0.0999999	-0.0429336	-0.288448	0.00661885	-0.26283	-0.462717	-0.460975	0.0368374	1.52492	1.2293	0.0370778	-0.0172792	-0.00748877	-0.594288	-0.335034	2.20639	1.62347	-0.00132512	-0.0204243
4.10833	-0.0436028	-0.0420423	0.0884336	0.7883	0.963895	-0.385531	0.738439	-0.109522	-0.137262	-2.21128	0.342663	0.0146342	-0.0415119	-0.0283006	-0.0895989	-0.174351	-0.625012	0.559568	0.0999999	-0.0429336	-0.269753	0.0307922	-0.282544	-0.500189	-0.475774	0.0117952	1.53896	1.21502	0.0370778	-0.0172792	0.000122427	-0.580242	-0.312059	2.21108	1.61709	-0.00132512	-0.0204243
4.11667	-0.0551289	-0.0578184	0.0879451	0.790501	0.967904	-0.386137	0.792424	-0.0932126	-0.148811	-2.12288	0.34948	0.0146342	-0.0415119	-0.0834056	-0.110546	-0.197784	-0.569449	0.488819	0.0999999	-0.0429336	-0.25041	0.0529595	-0.300063	-0.538372	-0.490681	-0.0148216	1.55505	1.20609	0.0370778	-0.0172792	0.00308954	-0.568794	-0.286436	2.21794	1.61013	-0.00132512	-0.0204243
4.125	-0.066862	-0.0711246	0.0859276	0.792782	0.971929	-0.386525	0.837627	-0.0781169	-0.159948	-2.02252	0.356209	0.0146342	-0.0415119	-0.13317	-0.128896	-0.224836	-0.521402	0.403365	0.0999999	-0.0429336	-0.231363	0.0719177	-0.315171	-0.576274	-0.504938	-0.0424882	1.57141	1.20185	0.0370778	-0.0172792	0.00251257	-0.560506	-0.258077	2.22654	1.60366	-0.00132512	-0.0204243
4.13333	-0.0784731	-0.0812683	0.0822038	0.795012	0.975849	-0.386687	0.873487	-0.064366	-0.169743	-1.91109	0.363987	0.0146342	-0.0415119	-0.17683	-0.143735	-0.253446	-0.483864	0.306754	0.0999999	-0.0429336	-0.213438	0.0868614	-0.327773	-0.612945	-0.517947	-0.0706351	1.58673	1.20099	0.0370778	-0.0172792	-0.000717017	-0.555611	-0.227335	2.2365	1.59872	-0.00132512	-0.0204243
4.14167	-0.0896924	-0.0878727	0.0767902	0.797081	0.979545	-0.386648	0.899614	-0.0518806	-0.177677	-1.78932	0.373743	0.0146342	-0.0415119	-0.213798	-0.154414	-0.280721	-0.459409	0.203919	0.0999999	-0.0429336	-0.197273	0.0973988	-0.337948	-0.647537	-0.529321	-0.0987072	1.60026	1.20188	0.0370778	-0.0172792	-0.00602084	-0.553995	-0.194958	2.24753	1.59616	-0.00132512	-0.0204243
4.15	-0.100293	-0.0908384	0.0699142	0.798907	0.98291	-0.386461	0.915802	-0.0405208	-0.183653	-1.65808	0.386086	0.0146342	-0.0415119	-0.24369	-0.160547	-0.303345	-0.450041	0.100862	0.0999999	-0.0429336	-0.183322	0.103503	-0.345971	-0.679345	-0.53887	-0.126225	1.61167	1.20293	0.0370778	-0.0172792	-0.0131579	-0.555215	-0.161963	2.25938	1.5966	-0.00132512	-0.0204243
4.15833	-0.110039	-0.0902874	0.0619973	0.800442	0.985861	-0.386194	0.922069	-0.030209	-0.187953	-1.51859	0.40122	0.0146342	-0.0415119	-0.266376	-0.161993	-0.318125	-0.457081	0.00402074	0.0999999	-0.0429336	-0.171894	0.105441	-0.352271	-0.707847	-0.546572	-0.152838	1.621	1.20289	0.0370778	-0.0172792	-0.0221761	-0.558572	-0.129457	2.27179	1.60031	-0.00132512	-0.0204243
4.16667	-0.118636	-0.0865115	0.0535983	0.801685	0.988332	-0.385921	0.918708	-0.0209852	-0.191141	-1.37272	0.418902	0.0146342	-0.0415119	-0.282039	-0.158882	-0.322673	-0.48108	-0.080686	0.0999999	-0.0429336	-0.163213	0.103699	-0.357365	-0.732722	-0.552515	-0.178354	1.62857	1.20109	0.0370778	-0.0172792	-0.0333121	-0.563199	-0.0984737	2.28449	1.60709	-0.00132512	-0.0204243
4.175	-0.125722	-0.0799368	0.0453209	0.802678	0.990267	-0.385702	0.90637	-0.0129858	-0.193929	-1.22317	0.438441	0.0146342	-0.0415119	-0.291199	-0.151647	-0.316037	-0.521799	-0.148871	0.0999999	-0.0429336	-0.157445	0.0989233	-0.361743	-0.753848	-0.556852	-0.202741	1.63482	1.19749	0.0370778	-0.0172792	-0.0468701	-0.568171	-0.0698371	2.29709	1.61634	-0.00132512	-0.0204243
4.18333	-0.130917	-0.0710955	0.0377054	0.803485	0.991613	-0.38558	0.88615	-0.00640303	-0.197056	-1.07358	0.458827	0.0146342	-0.0415119	-0.294677	-0.141021	-0.298926	-0.578259	-0.19833	0.0999999	-0.0429336	-0.154699	0.0918549	-0.365761	-0.771276	-0.559766	-0.226076	1.64026	1.1927	0.0370778	-0.0172792	-0.0631073	-0.5726	-0.0440912	2.30908	1.6271	-0.00132512	-0.0204243
4.19167	-0.133896	-0.0605982	0.031129	0.804173	0.992313	-0.38557	0.859611	-0.00140476	-0.201119	-0.928422	0.478764	0.0146342	-0.0415119	-0.293477	-0.128003	-0.273615	-0.648904	-0.229134	0.0999999	-0.0429336	-0.154986	0.083268	-0.369564	-0.78517	-0.561465	-0.248471	1.64539	1.1877	0.0370778	-0.0172792	-0.0821498	-0.575721	-0.0214996	2.31987	1.63812	-0.00132512	-0.0204243
4.2	-0.134466	-0.0491006	0.0257478	0.804791	0.992333	-0.385664	0.828715	0.00192207	-0.206462	-0.792704	0.496658	0.0146342	-0.0415119	-0.288653	-0.113775	-0.243469	-0.7318	-0.243199	0.0999999	-0.0429336	-0.158196	0.0739158	-0.373055	-0.795733	-0.562183	-0.26998	1.65059	1.18362	0.0370778	-0.0172792	-0.103949	-0.576931	-0.00210178	2.32881	1.64812	-0.00132512	-0.0204243
4.20833	-0.1326	-0.0372654	0.0214943	0.805361	0.991655	-0.385843	0.795637	0.00362147	-0.213059	-0.671488	0.510511	0.0146342	-0.0415119	-0.28117	-0.0995884	-0.212279	-0.824831	-0.243521	0.0999999	-0.0429336	-0.164104	0.064493	-0.375929	-0.803114	-0.562191	-0.290521	1.65616	1.18144	0.0370778	-0.0172792	-0.128278	-0.575811	0.0141959	2.33521	1.65592	-0.00132512	-0.0204243
4.21667	-0.128418	-0.0257306	0.0181263	0.805884	0.990288	-0.386083	0.76249	0.00389036	-0.220482	-0.569342	0.517921	0.0146342	-0.0415119	-0.271828	-0.0866356	-0.183569	-0.925867	-0.233363	0.0999999	-0.0429336	-0.172411	0.055613	-0.377754	-0.807323	-0.561797	-0.309838	1.66222	1.18175	0.0370778	-0.0172792	-0.154758	-0.572112	0.0275275	2.33841	1.66061	-0.00132512	-0.0204243
4.225	-0.122145	-0.0150818	0.0153051	0.806339	0.98826	-0.386357	0.731054	0.00303875	-0.22804	-0.489874	0.516453	0.0146342	-0.0415119	-0.261206	-0.0759312	-0.160049	-1.03288	-0.215599	0.0999999	-0.0429336	-0.182807	0.0477956	-0.378057	-0.808183	-0.561326	-0.327513	1.66871	1.18465	0.0370778	-0.0172792	-0.182897	-0.565723	0.0379972	2.3378	1.66176	-0.00132512	-0.0204243
4.23333	-0.114064	-0.00582293	0.0126659	0.80669	0.985608	-0.386646	0.702582	0.00146728	-0.234886	-0.435413	0.504285	0.0146342	-0.0415119	-0.249649	-0.0682336	-0.143302	-1.14403	-0.192414	0.0999999	-0.0429336	-0.195022	0.0414642	-0.376403	-0.805317	-0.561079	-0.34302	1.67545	1.18979	0.0370778	-0.0172792	-0.212136	-0.55664	0.0456489	2.33277	1.65946	-0.00132512	-0.0204243
4.24167	-0.104483	0.00163519	0.00986667	0.806893	0.982387	-0.386928	0.677737	-0.000345141	-0.240083	-0.406877	0.481056	0.0146342	-0.0415119	-0.237231	-0.0640167	-0.133762	-1.25768	-0.16532	0.0999999	-0.0429336	-0.208832	0.0369409	-0.372418	-0.798189	-0.561286	-0.355806	1.68218	1.19641	0.0370778	-0.0172792	-0.241876	-0.544934	0.0504785	2.32274	1.65433	-0.00132512	-0.0204243
4.25	-0.0937484	0.00697915	0.00660444	0.806907	0.978647	-0.387182	0.656651	-0.00185893	-0.242699	-0.403802	0.448624	0.0146342	-0.0415119	-0.223724	-0.0634952	-0.130892	-1.37241	-0.135365	0.0999999	-0.0429336	-0.224032	0.0344467	-0.365784	-0.786179	-0.562054	-0.365379	1.68859	1.20362	0.0370778	-0.0172792	-0.271498	-0.530722	0.0524825	2.3071	1.64742	-0.00132512	-0.0204243
4.25833	-0.082281	0.00999368	0.00261446	0.806688	0.974448	-0.387387	0.639035	-0.00250791	-0.24198	-0.424414	0.411385	0.0146342	-0.0415119	-0.208562	-0.0666726	-0.13346	-1.487	-0.103327	0.0999999	-0.0429336	-0.240369	0.034107	-0.356205	-0.768688	-0.563319	-0.371384	1.69442	1.21056	0.0370778	-0.0172792	-0.300369	-0.514164	0.0517324	2.28528	1.63992	-0.00132512	-0.0204243
4.26667	-0.0706057	0.010553	-0.00233453	0.80619	0.969889	-0.387524	0.624292	-0.00173404	-0.237532	-0.465671	0.375794	0.0146342	-0.0415119	-0.190825	-0.0734216	-0.139862	-1.60037	-0.0698422	0.0999999	-0.0429336	-0.257461	0.0359602	-0.343375	-0.74526	-0.56483	-0.373648	1.69954	1.21661	0.0370778	-0.0172792	-0.327858	-0.495464	0.0484477	2.25675	1.6329	-0.00132512	-0.0204243
4.275	-0.0593548	0.00861908	-0.00843367	0.805372	0.965149	-0.387572	0.611537	0.000967894	-0.229451	-0.52325	0.349025	0.0146342	-0.0415119	-0.169297	-0.0835287	-0.14838	-1.7115	-0.0354271	0.0999999	-0.0429336	-0.274748	0.0399575	-0.32698	-0.715686	-0.566155	-0.372198	1.70396	1.2215	0.0370778	-0.0172792	-0.353374	-0.474897	0.0430408	2.22121	1.62699	-0.00132512	-0.0204243
4.28333	-0.0492095	0.00425965	-0.015809	0.80423	0.960497	-0.387512	0.599587	0.00599597	-0.218271	-0.591604	0.337145	0.0146342	-0.0415119	-0.142589	-0.0966796	-0.157345	-1.81928	-0.000435024	0.0999999	-0.0429336	-0.291466	0.0459372	-0.306732	-0.680104	-0.566723	-0.367241	1.70792	1.22529	0.0370778	-0.0172792	-0.376439	-0.452839	0.0361007	2.17868	1.62227	-0.00132512	-0.0204243
